<?xml version="1.0" encoding="utf-8"?>
<!-- Generator: Adobe Illustrator 24.0.3, SVG Export Plug-In . SVG Version: 6.00 Build 0)  -->
<svg version="1.1" id="Layer_1" xmlns="http://www.w3.org/2000/svg" xmlns:xlink="http://www.w3.org/1999/xlink" x="0px" y="0px"
	 viewBox="0 0 19 26.2" style="enable-background:new 0 0 19 26.2;" xml:space="preserve">
<style type="text/css">
	.st0{fill:#780090;}
</style>
<title>Asset 1</title>
<g id="Layer_2_1_">
	<g id="Layer_1-2">
		<path class="st0" d="M19,9.5L19,9.5c0-3.4-1.8-6.5-4.7-8.2h-0.1c-2.9-1.7-6.5-1.7-9.4,0H4.7C1.8,3,0,6.1,0,9.5l0,0
			c0,3.4,1.8,6.5,4.7,8.2h0.1C6.1,18.5,7.5,18.9,9,19v2.9H6.1c-0.3,0-0.5,0.2-0.5,0.5s0.2,0.5,0.5,0.5H9v2.9c0,0.3,0.2,0.5,0.5,0.5
			l0,0c0.3,0,0.5-0.2,0.5-0.5v-2.9h2.9c0.3,0,0.5-0.2,0.5-0.5s-0.2-0.5-0.5-0.5H10V19c1.5-0.1,2.9-0.5,4.2-1.2h0.1
			C17.2,16.1,19,12.9,19,9.5z M18,9.2l-4.7,1.9l1.1-8.6C16.6,4.1,17.9,6.5,18,9.2z M9.1,12.9l-2.7-2.1l0.4-3.4l3.1-1.3l2.7,2.1
			l-0.4,3.4L9.1,12.9z M9.5,18c-1.4,0-2.8-0.3-4-1l0.7-5.1l2.5,1.9l0,0l4.4,3.3C11.9,17.7,10.7,18,9.5,18z M13.5,2l-0.7,5.1L5.9,1.8
			C7,1.3,8.3,1,9.5,1C10.9,1,12.2,1.3,13.5,2L13.5,2z M5,2.3l4,3.1L1,8.7C1.3,6.1,2.7,3.7,5,2.3z M1,9.8l4.7-2l-1.1,8.6
			C2.4,14.9,1.1,12.5,1,9.8z M14,16.7l-4-3.1l2.9-1.2l0,0l5.1-2.1C17.7,12.9,16.3,15.3,14,16.7z"/>
	</g>
</g>
</svg>
